<?xml version="1.0" encoding="utf-8"?>
<!-- Generator: Adobe Illustrator 26.0.3, SVG Export Plug-In . SVG Version: 6.00 Build 0)  -->
<svg version="1.1" id="Layer_1" xmlns="http://www.w3.org/2000/svg" xmlns:xlink="http://www.w3.org/1999/xlink" x="0px" y="0px"
	 viewBox="0 0 534.7 171.5" style="enable-background:new 0 0 534.7 171.5;" xml:space="preserve">
<style type="text/css">
	.st0{fill-rule:evenodd;clip-rule:evenodd;fill:#00B483;}
	.st1{fill-rule:evenodd;clip-rule:evenodd;fill:#FFFFFF;}
	.st2{fill:#00B483;}
</style>
<path class="st0" d="M85.2,67.5c0,0,9.2,0,12.3-9.3c3.1-9.3,3.3-12.5,7.2-16.6C104.7,41.7,81.2,50.2,85.2,67.5"/>
<path class="st0" d="M78.8,122.5c0,0-12.5,0.7-17.3-11.8c-4.8-12.5-5.3-16.8-10.9-22.1C50.5,88.6,83.1,98.7,78.8,122.5"/>
<path class="st0" d="M85.2,149.1c0,0,9.2,0,12.3-9.3c3.1-9.3,3.3-12.5,7.2-16.6C104.7,123.2,81.2,131.7,85.2,149.1"/>
<path class="st0" d="M81.6,66c0,0,8.8,0.5,12.2-8.4c3.4-8.8,3.7-11.8,7.7-15.6C101.5,42.1,78.6,49.2,81.6,66"/>
<path d="M95.1,58.2c-3.8,9.7-13.5,9.2-13.6,9.2l-1.1,0l-0.2-1.1c-3.2-18,20.8-25.5,20.9-25.5l5.7-1.8l-4.3,4.1
	c-2.8,2.7-3.7,5-5.4,9.8C96.5,54.4,95.9,56.1,95.1,58.2 M82.8,64.6c2.3-0.2,7.4-1.4,9.8-7.5c0.8-2.1,1.4-3.8,2-5.3
	c1-2.8,1.7-4.9,2.7-6.6C91.3,48.2,81.7,54.4,82.8,64.6z"/>
<rect x="80" y="47.9" width="2.7" height="109.9"/>
<path d="M52,48.5c0,1.5-0.6,2.8-1.5,3.8c-0.9,1-2.3,1.6-3.7,1.6c-1.5,0-2.8-0.6-3.7-1.6c-0.9-1-1.5-2.3-1.5-3.8c0-2.6,1-5,2.6-6.7
	c1.6-1.7,3.9-2.8,6.4-2.8c2.5,0,4.8,1.1,6.4,2.8c1.6,1.7,2.6,4.1,2.6,6.7c0,3.7-1.4,7.2-3.7,9.6c-2.3,2.5-5.6,4-9.1,4
	c-3.6,0-6.8-1.5-9.1-4c-2.3-2.5-3.7-5.9-3.7-9.6c0-4.9,1.9-9.3,4.9-12.5c3-3.2,7.2-5.2,11.9-5.2c4.6,0,8.8,2,11.9,5.2
	c3,3.2,4.9,7.6,4.9,12.5c0,6-2.3,11.5-6,15.4c-3.7,4-8.9,6.4-14.6,6.4c-5.7,0-10.8-2.5-14.6-6.4c-3.7-4-6-9.4-6-15.4
	c0-7.1,2.7-13.6,7.1-18.3c4.4-4.7,10.5-7.6,17.3-7.6c6.8,0,12.9,2.9,17.3,7.6c4.4,4.7,7.1,11.2,7.1,18.3c0,8.3-3.2,15.8-8.2,21.2
	c-5.1,5.5-12.2,8.8-20,8.8s-14.9-3.4-20-8.8c-5.1-5.4-8.2-12.9-8.2-21.2c0-9.4,3.6-17.9,9.4-24.1c5.8-6.2,13.8-10,22.7-10
	c8.9,0,16.9,3.8,22.7,10c5.8,6.2,9.4,14.7,9.4,24.1H80c0-8.7-3.3-16.6-8.6-22.2c-5.3-5.7-12.6-9.2-20.7-9.2
	c-8.1,0-15.4,3.5-20.7,9.2c-5.3,5.7-8.6,13.5-8.6,22.2c0,7.6,2.9,14.4,7.5,19.3c4.6,4.9,11,8,18,8c7,0,13.4-3,18-8
	c4.6-4.9,7.5-11.8,7.5-19.3c0-6.4-2.4-12.2-6.4-16.4c-3.9-4.2-9.3-6.8-15.3-6.8c-6,0-11.4,2.6-15.3,6.8c-3.9,4.2-6.4,10-6.4,16.4
	c0,5.3,2,10.1,5.2,13.5c3.2,3.4,7.7,5.6,12.6,5.6c4.9,0,9.4-2.1,12.6-5.6c3.2-3.5,5.2-8.2,5.2-13.5c0-4.2-1.6-7.9-4.1-10.6
	c-2.5-2.7-6-4.4-9.9-4.4c-3.8,0-7.3,1.7-9.9,4.4c-2.5,2.7-4.1,6.5-4.1,10.6c0,3,1.1,5.8,3,7.8c1.8,2,4.4,3.2,7.2,3.2
	c2.8,0,5.3-1.2,7.2-3.2c1.9-2,3-4.7,3-7.8c0-1.9-0.7-3.6-1.9-4.9c-1.1-1.2-2.7-2-4.4-2c-1.7,0-3.3,0.8-4.4,2c-1.2,1.2-1.9,3-1.9,4.9
	c0,0.8,0.3,1.5,0.8,2c0.4,0.5,1.1,0.8,1.7,0.8c0.7,0,1.3-0.3,1.7-0.8c0.5-0.5,0.8-1.2,0.8-2H52z"/>
<path d="M100,91.6c0,0.4,0.1,0.7,0.3,0.9c0.2,0.2,0.5,0.3,0.8,0.3c0.3,0,0.6-0.1,0.8-0.3c0.2-0.2,0.3-0.5,0.3-0.9c0-1-0.4-1.9-1-2.6
	c-0.6-0.6-1.4-1-2.3-1c-0.9,0-1.7,0.4-2.3,1c-0.6,0.6-1,1.5-1,2.6c0,1.6,0.6,3.1,1.6,4.2c1,1.1,2.3,1.7,3.8,1.7
	c1.5,0,2.9-0.7,3.8-1.7c1-1.1,1.6-2.6,1.6-4.2c0-2.3-0.9-4.4-2.3-5.8c-1.4-1.5-3.3-2.4-5.4-2.4c-2.1,0-4,0.9-5.4,2.4
	c-1.4,1.5-2.3,3.6-2.3,5.8c0,2.9,1.1,5.6,2.9,7.5c1.8,1.9,4.2,3.1,6.9,3.1c2.7,0,5.2-1.2,6.9-3.1c1.8-1.9,2.9-4.6,2.9-7.5
	c0-3.6-1.4-6.8-3.5-9.1c-2.2-2.3-5.2-3.8-8.5-3.8c-3.3,0-6.3,1.4-8.5,3.8c-2.2,2.3-3.5,5.6-3.5,9.1c0,4.2,1.6,8,4.2,10.8
	c2.6,2.7,6.1,4.4,10,4.4c3.9,0,7.5-1.7,10-4.4c2.6-2.8,4.2-6.6,4.2-10.8c0-4.9-1.8-9.3-4.8-12.4c-3-3.2-7.1-5.1-11.6-5.1
	c-4.5,0-8.6,2-11.6,5.1c-3,3.2-4.8,7.6-4.8,12.4h-2.2c0-5.4,2.1-10.4,5.4-13.9c3.4-3.6,8-5.8,13.2-5.8c5.1,0,9.8,2.2,13.2,5.8
	c3.3,3.6,5.4,8.5,5.4,13.9c0,4.8-1.8,9.1-4.8,12.3c-3,3.2-7.1,5.1-11.6,5.1c-4.5,0-8.6-2-11.6-5.1c-3-3.1-4.8-7.5-4.8-12.3
	c0-4.1,1.6-7.9,4.1-10.6c2.6-2.7,6.1-4.4,10.1-4.4c3.9,0,7.5,1.7,10.1,4.4c2.6,2.7,4.1,6.5,4.1,10.6c0,3.5-1.3,6.7-3.5,9
	c-2.2,2.3-5.2,3.8-8.5,3.8c-3.3,0-6.3-1.4-8.5-3.8c-2.2-2.3-3.5-5.5-3.5-9c0-2.9,1.1-5.5,2.9-7.3c1.8-1.9,4.2-3.1,7-3.1
	c2.7,0,5.2,1.2,7,3.1c1.8,1.9,2.9,4.5,2.9,7.3c0,2.2-0.8,4.2-2.2,5.7c-1.4,1.5-3.3,2.4-5.4,2.4c-2.1,0-4-0.9-5.4-2.4
	c-1.4-1.5-2.2-3.5-2.2-5.7c0-1.6,0.6-3,1.6-4c1-1.1,2.4-1.7,3.9-1.7c1.5,0,2.9,0.7,3.9,1.7c1,1,1.6,2.5,1.6,4c0,0.9-0.4,1.8-0.9,2.4
	c-0.6,0.6-1.4,1-2.3,1c-0.9,0-1.7-0.4-2.3-1c-0.6-0.6-0.9-1.5-0.9-2.4H100z"/>
<path class="st0" d="M81,120.5c0,0-12.5,0.7-17.3-11.8c-4.8-12.5-5.3-16.8-10.9-22.1C52.8,86.5,85.3,96.6,81,120.5"/>
<path d="M65,108.1c3.6,9.4,11.9,10.8,14.9,11c2.1-16.2-14-25.6-22.5-29.3c1.9,2.9,3.1,6.1,4.8,10.9C63,102.8,63.8,105.2,65,108.1
	 M81.1,121.8c0,0-13.5,0.7-18.7-12.7c-1.1-2.9-2-5.4-2.8-7.5c-2.5-6.8-3.7-10.2-7.8-14l-4.3-4.1l5.7,1.8c0.1,0,33.7,10.5,29.2,35.5
	l-0.2,1.1L81.1,121.8z"/>
<path class="st0" d="M81.6,149.2c0,0,8.8,0.5,12.2-8.4c3.4-8.8,3.7-11.8,7.7-15.6C101.5,125.3,78.6,132.4,81.6,149.2"/>
<path d="M95.1,141.4c-3.8,9.7-13.5,9.2-13.6,9.2l-1.1,0l-0.2-1.1c-3.2-18,20.8-25.5,20.9-25.5l5.7-1.8l-4.3,4.1
	c-2.8,2.7-3.7,5-5.4,9.8C96.5,137.6,95.9,139.3,95.1,141.4 M82.8,147.8c2.3-0.2,7.4-1.4,9.8-7.5c0.8-2.1,1.4-3.8,2-5.3
	c1-2.8,1.7-4.9,2.7-6.6C91.3,131.4,81.7,137.6,82.8,147.8z"/>
<rect x="40.8" y="156.7" width="90.6" height="1.1"/>
<path d="M411.4,87.4h6.8c3.7,0,6.8-3.1,6.8-6.8c0-8.4-10.7-5-10.7-10.7c0-2.1,1.8-3.9,3.9-3.9h6.8v-2.9h-6.8c-3.7,0-6.8,3.1-6.8,6.8
	c0,8.4,10.7,5,10.7,10.7c0,2.1-1.8,3.9-3.9,3.9h-6.8V87.4z M394.3,66c4.6,0,8.4,3.4,9.1,7.8h-18.3C385.9,69.4,389.7,66,394.3,66z
	 M385.2,76.7h21.3v-1.5c0-6.7-5.5-12.2-12.2-12.2s-12.2,5.5-12.2,12.2c0,6.7,5.5,12.2,12.2,12.2c3.4,0,6.4-1.4,8.6-3.6l-2.1-2
	c-1.7,1.7-4,2.7-6.5,2.7C389.7,84.5,385.9,81.1,385.2,76.7z M365.1,66c4.6,0,8.4,3.4,9.1,7.8H356C356.7,69.4,360.5,66,365.1,66z
	 M356,76.7h21.3v-1.5c0-6.7-5.5-12.2-12.2-12.2c-6.7,0-12.2,5.5-12.2,12.2c0,6.7,5.5,12.2,12.2,12.2c3.4,0,6.4-1.4,8.6-3.6l-2.1-2
	c-1.7,1.7-4,2.7-6.5,2.7C360.5,84.5,356.7,81.1,356,76.7z M326.7,75.3c0-5.3,4.2-9.2,9.2-9.2c5.1,0,9.2,4.1,9.2,9.2
	c0,5.1-4.1,9.2-9.2,9.2S326.7,80.4,326.7,75.3z M323.8,87.4h2.9v-4.2c2.2,2.6,5.5,4.2,9.2,4.2c6.7,0,12.2-5.5,12.2-12.2
	c0-6.7-5.5-12.2-12.2-12.2c-3.7,0-7,1.7-9.2,4.3V50.9h-2.9V87.4z M273.2,75.3c0-2.8,1.2-5.3,3.1-7l11,14.8c-1.4,0.9-3.1,1.4-4.9,1.4
	C277.3,84.5,273.2,80.4,273.2,75.3z M277.1,64.4c-1.8-3.1-1-7,1.9-9.1c3-2.3,7.3-1.7,9.7,1.4c0.8,1.1,1.3,2.3,1.4,3.5h2.9
	c-0.1-1.8-0.8-3.7-2-5.3c-3.3-4.3-9.4-5.3-13.8-2.1c-4.1,3.1-5.2,8.8-2.6,13.1c-2.6,2.2-4.3,5.5-4.3,9.3c0,6.7,5.5,12.2,12.2,12.2
	c2.4,0,4.7-0.7,6.6-1.9l1.5,1.9h3.6l-2.8-3.8c2-2.2,3.3-5.1,3.3-8.4h-2.9c0,2.3-0.8,4.4-2.2,6L277.1,64.4z M227.4,87.4h6.8
	c3.7,0,6.8-3.1,6.8-6.8c0-8.4-10.7-5-10.7-10.7c0-2.1,1.8-3.9,3.9-3.9h6.8v-2.9h-6.8c-3.7,0-6.8,3.1-6.8,6.8c0,8.4,10.7,5,10.7,10.7
	c0,2.1-1.8,3.9-3.9,3.9h-6.8V87.4z M201.2,75.3c0-5.1,4.1-9.2,9.2-9.2s9.2,4.1,9.2,9.2c0,5.1-4.1,9.2-9.2,9.2S201.2,80.4,201.2,75.3
	z M201.8,96c2.2,2.2,5.3,3.6,8.6,3.6c6.7,0,12.2-5.5,12.2-12.2V63.1h-2.9v4.3c-2.2-2.6-5.5-4.3-9.2-4.3c-6.7,0-12.2,5.5-12.2,12.2
	c0,6.7,5.5,12.2,12.2,12.2c3.7,0,7-1.7,9.2-4.2v4.2c0,5.1-4.1,9.2-9.2,9.2c-2.6,0-4.9-1.1-6.6-2.7L201.8,96z M190.5,75.3
	c0,5.1-4.1,9.2-9.2,9.2s-9.2-4.1-9.2-9.2V63.1h-2.9v12.2c0,6.7,5.5,12.2,12.2,12.2s12.2-5.5,12.2-12.2V63.1h-2.9V75.3z M142.8,75.3
	c0-5.3,4.2-9.2,9.2-9.2c5.1,0,9.2,4.1,9.2,9.2c0,5.1-4.1,9.2-9.2,9.2S142.8,80.4,142.8,75.3z M139.9,87.4h2.9v-4.2
	c2.2,2.6,5.5,4.2,9.2,4.2c6.7,0,12.2-5.5,12.2-12.2c0-6.7-5.5-12.2-12.2-12.2c-3.7,0-7,1.7-9.2,4.3V50.9h-2.9V87.4z"/>
<path d="M197.7,118.1h1.1v-8h4V109h-4v-4.6h-1.1V118.1z M186.8,118.1h1.1v-4.6c0-1.8,1.6-3.5,3.5-3.5c1.9,0,3.5,1.6,3.5,3.5v4.6h1.1
	v-4.6c0-2.5-2-4.6-4.6-4.6c-1.4,0-2.6,0.6-3.5,1.6V109h-1.1V118.1z M176.9,113.5c0-1.9,1.6-3.5,3.5-3.5c1.9,0,3.5,1.6,3.5,3.5
	c0,2-1.6,3.5-3.5,3.5C178.5,117,176.9,115.4,176.9,113.5z M183.9,118.1h1.1v-4.6c0-2.5-2-4.6-4.6-4.6s-4.6,2-4.6,4.6s2,4.6,4.6,4.6
	c1.4,0,2.6-0.6,3.5-1.6V118.1z M172.9,118.1h1.1v-13.7h-1.1V118.1z M163,113.5c0-2,1.6-3.5,3.5-3.5c1.9,0,3.5,1.6,3.5,3.5
	s-1.6,3.5-3.5,3.5S163,115.4,163,113.5z M161.9,122.6h1.1v-6.2c0.8,1,2.1,1.6,3.5,1.6c2.5,0,4.6-2,4.6-4.6s-2-4.6-4.6-4.6
	c-1.4,0-2.6,0.6-3.5,1.6V109h-1.1V122.6z"/>
<path d="M286.3,118.1h1.1v-4.6c0-1.8,1.6-3.5,3.5-3.5V109c-1.4,0-2.6,0.6-3.5,1.6V109h-1.1V118.1z M283.7,111.1l0.8-0.8
	c-1.8-1.8-4.7-1.8-6.5,0c-1.8,1.8-1.8,4.7,0,6.5c1.8,1.8,4.7,1.8,6.5,0l-0.8-0.8c-1.4,1.4-3.5,1.4-4.9,0c-1.4-1.4-1.4-3.5,0-4.9
	C280.2,109.7,282.4,109.7,283.7,111.1z M265.8,119.2v-15.9h-1.1v15.9H265.8z M252.6,118.1h1.1v-13.7h-1.1V118.1z M250.8,104.4h-1.1
	v1.8h1.1V104.4z M249.7,118.1h1.1V109h-1.1V118.1z M239.9,113.5c0-1.9,1.6-3.5,3.5-3.5c1.9,0,3.5,1.6,3.5,3.5s-1.6,3.5-3.5,3.5
	C241.4,117,239.9,115.4,239.9,113.5z M238.8,113.5c0,2.5,2,4.6,4.6,4.6s4.6-2,4.6-4.6s-2-4.6-4.6-4.6S238.8,111,238.8,113.5z
	 M231.8,118.1h2.6c1.4,0,2.6-1.2,2.6-2.6c0-3.2-4-1.9-4-4c0-0.8,0.7-1.5,1.5-1.5h2.6V109h-2.6c-1.4,0-2.6,1.2-2.6,2.6
	c0,3.2,4,1.9,4,4c0,0.8-0.7,1.5-1.5,1.5h-2.6V118.1z M220.9,119.2v-15.9h-1.1v15.9H220.9z M203.7,118.1h2.6c1.4,0,2.6-1.2,2.6-2.6
	c0-3.2-4-1.9-4-4c0-0.8,0.7-1.5,1.5-1.5h2.6V109h-2.6c-1.4,0-2.6,1.2-2.6,2.6c0,3.2,4,1.9,4,4c0,0.8-0.7,1.5-1.5,1.5h-2.6V118.1z"/>
<path d="M302.4,118.1h1.1v-8h4V109h-4v-4.6h-1.1V118.1z M292.5,113.5c0-1.9,1.6-3.5,3.5-3.5c1.9,0,3.5,1.6,3.5,3.5s-1.6,3.5-3.5,3.5
	C294.1,117,292.5,115.4,292.5,113.5z M291.4,113.5c0,2.5,2,4.6,4.6,4.6c2.5,0,4.6-2,4.6-4.6s-2-4.6-4.6-4.6
	C293.5,109,291.4,111,291.4,113.5z"/>
<path d="M397.8,118.1h2.6c1.4,0,2.6-1.2,2.6-2.6c0-3.2-4-1.9-4-4c0-0.8,0.7-1.5,1.5-1.5h2.6V109h-2.6c-1.4,0-2.6,1.2-2.6,2.6
	c0,3.2,4,1.9,4,4c0,0.8-0.7,1.5-1.5,1.5h-2.6V118.1z M394.9,113.5c0,1.9-1.6,3.5-3.5,3.5c-1.9,0-3.5-1.6-3.5-3.5s1.6-3.5,3.5-3.5
	C393.3,110,394.9,111.5,394.9,113.5z M396,104.4h-1.1v6.2c-0.8-1-2.1-1.6-3.5-1.6c-2.5,0-4.6,2-4.6,4.6s2,4.6,4.6,4.6
	c1.4,0,2.6-0.6,3.5-1.6v1.6h1.1V104.4z M380.5,110c1.7,0,3.2,1.3,3.4,2.9H377C377.3,111.3,378.7,110,380.5,110z M377,114.1h8v-0.5
	c0-2.5-2-4.6-4.6-4.6c-2.5,0-4.6,2-4.6,4.6s2,4.6,4.6,4.6c1.3,0,2.4-0.5,3.2-1.4l-0.8-0.7c-0.6,0.6-1.5,1-2.4,1
	C378.7,117,377.3,115.7,377,114.1z M369.5,110c1.7,0,3.2,1.3,3.4,2.9h-6.8C366.4,111.3,367.8,110,369.5,110z M366.1,114.1h8v-0.5
	c0-2.5-2-4.6-4.6-4.6c-2.5,0-4.6,2-4.6,4.6s2,4.6,4.6,4.6c1.3,0,2.4-0.5,3.2-1.4L372,116c-0.6,0.6-1.5,1-2.4,1
	C367.8,117,366.4,115.7,366.1,114.1z M358,118.1h2.6c1.4,0,2.6-1.2,2.6-2.6c0-3.2-4-1.9-4-4c0-0.8,0.7-1.5,1.5-1.5h2.6V109h-2.6
	c-1.4,0-2.6,1.2-2.6,2.6c0,3.2,4,1.9,4,4c0,0.8-0.7,1.5-1.5,1.5H358V118.1z M347.1,119.2v-15.9H346v15.9H347.1z M329.9,118.1h2.6
	c1.4,0,2.6-1.2,2.6-2.6c0-3.2-4-1.9-4-4c0-0.8,0.7-1.5,1.5-1.5h2.6V109h-2.6c-1.4,0-2.6,1.2-2.6,2.6c0,3.2,4,1.9,4,4
	c0,0.8-0.7,1.5-1.5,1.5h-2.6V118.1z M319,118.1h1.1v-4.6c0-1.8,1.6-3.5,3.5-3.5c1.9,0,3.5,1.6,3.5,3.5v4.6h1.1v-4.6
	c0-2.5-2-4.6-4.6-4.6c-1.4,0-2.6,0.6-3.5,1.6V109H319V118.1z M309.1,113.5c0-1.9,1.6-3.5,3.5-3.5s3.5,1.6,3.5,3.5s-1.6,3.5-3.5,3.5
	S309.1,115.4,309.1,113.5z M308,113.5c0,2.5,2,4.6,4.6,4.6c2.5,0,4.6-2,4.6-4.6s-2-4.6-4.6-4.6C310.1,109,308,111,308,113.5z"/>
<path class="st0" d="M471.3,61.1h33.9c4.7,0,8.5,3.8,8.5,8.5v33.9c0,4.7-3.8,8.5-8.5,8.5h-33.9c-4.7,0-8.5-3.8-8.5-8.5V69.6
	C462.8,64.9,466.6,61.1,471.3,61.1"/>
<path class="st1" d="M475.5,97c0,0-1.4-7.7,8.3-12.1c9.7-4.4,13.2-5.2,17-9.3C500.9,75.7,495.1,97,475.5,97"/>
</svg>
